# xmcd CD database file
#
# Track frame offsets:
#	150
#	14390
#	25734
#	39823
#	54862
#	67469
#	77951
#	89461
#	100222
#	112736
#	127332
#	141013
#	154295
#	167750
#	181352
#	194742
#	207733
#	220906
#	232087
#	243883
#	257307
#	271008
#
# Disc length: 3757 seconds
#
# Revision: 1
# Processed by: cddbd v1.5.2PL0 Copyright (c) Steve Scherf et al.
# Submitted via: CDex 1.51
#
DISCID=3b0eab16
DTITLE=Various Artist - Ellington's Small Units  {1935-1941}
DYEAR=2001
DGENRE=Jazz
TTITLE0=Duke Ellington Sextet - Though Trucking   [1935] 
TTITLE1=Rex Stewart and His Fitty Second Street Stompers - Tea and Trumpets   [1937] 
TTITLE2=Rex Stewart and His Orchestra - Mobile Bay   [1940]
TTITLE3=Rex Stewart and His Orchestra - Subtle Slough   [1941]
TTITLE4=Cootie Williams and His Rug Cutters - Delta Mood   [1938]
TTITLE5=Cootie Williams and His Rug Cutters - The Boy From Harlem   [1938]
TTITLE6=Cootie Williams and His Rug Cutters - Mobile Blues   [1938]
TTITLE7=Cootie Williams and His Rug Cutters - Gal-A-Vanting   [1938]
TTITLE8=Barney Bigard and His Jazzopators - Have A Heart   [1938]
TTITLE9=Cootie Williams and His Rug Cutters - Echoes Of Harlem   [1938]
TTITLE10=Cootie Williams and His Rug Cutters - Chasing Chippies   [1938]
TTITLE11=Cootie Williams and His Rug Cutters - Give It Up   [1940]
TTITLE12=Barney Bigard and His Jazzopators - Clouds In My Heart   [1936]
TTITLE13=Barney Bigard and His Jazzopators - Frolic Sam   [1936]
TTITLE14=Barney Bigard and His Jazzopators - Barney Goin' Easy   [1939]
TTITLE15=Barney Bigard and His Jazzopators - Honey Hush  (Solid Old Man)   [1939]
TTITLE16=Johnny Hodges and His Orchestra - Jeep' s Blues   [1938]
TTITLE17=Johnny Hodges and His Orchestra - The Jeep Is Jumping   [1938]
TTITLE18=Johnny Hodges and His Orchestra - Hodge-Podge   [1938]
TTITLE19=Johnny Hodges and His Orchestra - Dooji-Wooji   [1939]
TTITLE20=Johnny Hodges and His Orchestra - Good Gal Blues   [1939]
TTITLE21=Johnny Hodges and His Orchestra - Squaty Roo   [1941]
EXTD=YEAR: 2001
EXTT0=
EXTT1=
EXTT2=
EXTT3=
EXTT4=
EXTT5=
EXTT6=
EXTT7=
EXTT8=
EXTT9=
EXTT10=
EXTT11=
EXTT12=
EXTT13=
EXTT14=
EXTT15=
EXTT16=
EXTT17=
EXTT18=
EXTT19=
EXTT20=
EXTT21=
PLAYORDER=
